<?xml version="1.0" encoding="UTF-8" standalone="no"?>
<svg
   id="hg-readme-banner-v2"
   viewBox="0 0 800 200"
   width="800"
   height="200"
   version="1.1"
   sodipodi:docname="project.svg"
   xml:space="preserve"
   inkscape:version="1.4.1 (93de688d07, 2025-03-30)"
   xmlns:inkscape="http://www.inkscape.org/namespaces/inkscape"
   xmlns:sodipodi="http://sodipodi.sourceforge.net/DTD/sodipodi-0.dtd"
   xmlns="http://www.w3.org/2000/svg"
   xmlns:svg="http://www.w3.org/2000/svg"><sodipodi:namedview
     id="namedview4"
     pagecolor="#ffffff"
     bordercolor="#999999"
     borderopacity="1"
     inkscape:showpageshadow="0"
     inkscape:pageopacity="0"
     inkscape:pagecheckerboard="0"
     inkscape:deskcolor="#d1d1d1"
     inkscape:zoom="1.5794998"
     inkscape:cx="171.57331"
     inkscape:cy="75.97342"
     inkscape:window-width="1916"
     inkscape:window-height="1031"
     inkscape:window-x="1920"
     inkscape:window-y="27"
     inkscape:window-maximized="1"
     inkscape:current-layer="hg-readme-banner-v2" /><defs
     id="defs2"><linearGradient
       id="a"
       x1="112.46"
       y1="309.13"
       x2="314.5"
       y2="309.13"
       gradientUnits="userSpaceOnUse"
       gradientTransform="translate(-33.985 -122.816)"><stop
         offset="0"
         stop-color="#1992f4"
         id="stop1" /><stop
         offset="1"
         stop-color="#2b8af6"
         id="stop2" /></linearGradient></defs><style
     id="style2">.st3{font-family:'OpenSans-Bold'}.st4{font-size:29.5168px}.st5{fill-rule:evenodd;clip-rule:evenodd;fill:none}.st7{font-family:'OpenSans'}.st8{font-size:12px}@media (prefers-color-scheme:dark){text{fill:#f0f6fc!important}}</style><text
     y="107.939"
     x="192.432"
     style="font-family:'Open Sans', sans-serif;-inkscape-font-specification:'OpenSans-Bold, Bold';font-variant-ligatures:normal;font-variant-caps:normal;font-variant-numeric:normal;font-feature-settings:normal;text-align:start"
     class="st3 st4"
     font-weight="700"
     font-size="29.517"
     font-family="'Open Sans',sans-serif"
     fill="#3f3e4b"
     id="text2">hausgold/opensearch</text><path
     class="st5"
     clip-rule="evenodd"
     fill="none"
     fill-rule="evenodd"
     d="M194.24 119.6h314.5v24h-314.5z"
     id="path2" /><text
     y="128.757"
     x="194.217"
     style="font-family:'Open Sans', sans-serif;-inkscape-font-specification:'Open Sans, sans-serif, Normal';font-variant-ligatures:normal;font-variant-caps:normal;font-variant-numeric:normal;font-feature-settings:normal;text-align:start"
     class="st7 st8"
     font-weight="400"
     font-size="12"
     font-family="'Open Sans',sans-serif"
     opacity=".75"
     fill="#3f3e4b"
     id="text3">mDNS enabled opensearchproject/opensearch</text><g
     style="fill:none;stroke-width:0.534608"
     id="g5"
     transform="matrix(1.8705288,0,0,1.8705288,41.983048,40.14375)"><path
       d="m 61.7374,23.5 c -1.2496,0 -2.2626,1.013 -2.2626,2.2626 0,18.6187 -15.0935,33.7122 -33.7122,33.7122 -1.2496,0 -2.2626,1.013 -2.2626,2.2626 C 23.5,62.987 24.513,64 25.7626,64 46.8805,64 64,46.8805 64,25.7626 64,24.513 62.987,23.5 61.7374,23.5 Z"
       fill="#005eb8"
       id="path1"
       style="stroke-width:0.534608" /><path
       d="M 48.0814,38 C 50.2572,34.4505 52.3615,29.7178 51.9475,23.0921 51.0899,9.36725 38.6589,-1.04463 26.9206,0.0837327 22.3253,0.525465 17.6068,4.2712 18.026,10.9805 c 0.1822,2.9156 1.6092,4.6364 3.9284,5.9594 2.2074,1.2593 5.0434,2.057 8.2584,2.9612 3.8834,1.0923 8.3881,2.3192 11.8502,4.8706 4.1495,3.0578 6.9861,6.6026 6.0184,13.2283 z"
       fill="#003b5c"
       id="path2-3"
       style="stroke-width:0.534608" /><path
       d="M 3.91861,14 C 1.74276,17.5495 -0.361506,22.2822 0.0524931,28.9079 0.910072,42.6327 13.3411,53.0446 25.0794,51.9163 29.6747,51.4745 34.3932,47.7288 33.974,41.0195 33.7918,38.1039 32.3647,36.3831 30.0456,35.0601 27.8382,33.8008 25.0022,33.0031 21.7872,32.0989 17.9038,31.0066 13.3991,29.7797 9.93694,27.2283 5.78746,24.1704 2.95092,20.6257 3.91861,14 Z"
       fill="#005eb8"
       id="path3-6"
       style="stroke-width:0.534608" /></g></svg>
