<?xml version="1.0" encoding="UTF-8" standalone="no"?>
<svg
   version="1.1"
   id="Ebene_1"
   x="0px"
   y="0px"
   viewBox="0 0 800 200"
   xml:space="preserve"
   width="800"
   height="200"
   sodipodi:docname="project.svg"
   inkscape:version="1.2.1 (9c6d41e410, 2022-07-14, custom)"
   inkscape:export-filename="project.png"
   inkscape:export-xdpi="96"
   inkscape:export-ydpi="96"
   xmlns:inkscape="http://www.inkscape.org/namespaces/inkscape"
   xmlns:sodipodi="http://sodipodi.sourceforge.net/DTD/sodipodi-0.dtd"
   xmlns="http://www.w3.org/2000/svg"
   xmlns:svg="http://www.w3.org/2000/svg"
   xmlns:rdf="http://www.w3.org/1999/02/22-rdf-syntax-ns#"
   xmlns:cc="http://creativecommons.org/ns#"
   xmlns:dc="http://purl.org/dc/elements/1.1/"><sodipodi:namedview
   pagecolor="#ffffff"
   bordercolor="#666666"
   borderopacity="1"
   objecttolerance="10"
   gridtolerance="10"
   guidetolerance="10"
   inkscape:pageopacity="0"
   inkscape:pageshadow="2"
   inkscape:window-width="1916"
   inkscape:window-height="1031"
   id="namedview13"
   showgrid="false"
   inkscape:zoom="1.995"
   inkscape:cx="265.16291"
   inkscape:cy="90.726817"
   inkscape:window-x="1920"
   inkscape:window-y="47"
   inkscape:window-maximized="0"
   inkscape:current-layer="Ebene_1"
   inkscape:showpageshadow="0"
   inkscape:pagecheckerboard="0"
   inkscape:deskcolor="#d1d1d1" /><metadata
   id="metadata33"><rdf:RDF><cc:Work
       rdf:about=""><dc:format>image/svg+xml</dc:format><dc:type
         rdf:resource="http://purl.org/dc/dcmitype/StillImage" /><dc:title /></cc:Work></rdf:RDF></metadata><defs
   id="defs31"><clipPath
   clipPathUnits="userSpaceOnUse"
   id="clipPath18"><path
     d="M 0,612 H 792 V 0 H 0 Z"
     id="path16"
     inkscape:connector-curvature="0" /></clipPath>

</defs>
<style
   type="text/css"
   id="style2">
    .st0{fill-rule:evenodd;clip-rule:evenodd;fill:#E73E11;}
    .st1{fill-rule:evenodd;clip-rule:evenodd;fill:#0371B9;}
    .st2{fill:#132E48;}
    .st3{font-family:'OpenSans-Bold';}
    .st4{font-size:29.5168px;}
    .st5{fill-rule:evenodd;clip-rule:evenodd;fill:none;}
    .st6{opacity:0.5;fill:#132E48;}
    .st7{font-family:'OpenSans';}
    .st8{font-size:12px;}
</style>
<text
   class="st2 st3 st4"
   id="text10"
   style="font-style:normal;font-variant:normal;font-weight:bold;font-stretch:normal;font-size:29.5173px;font-family:'Open Sans', sans-serif;-inkscape-font-specification:'OpenSans-Bold, Bold';font-variant-ligatures:normal;font-variant-caps:normal;font-variant-numeric:normal;font-feature-settings:normal;text-align:start;writing-mode:lr-tb;text-anchor:start;fill:#132e48"
   x="192.43155"
   y="107.939">hausgold/opensearch</text>
<rect
   x="194.23985"
   y="119.60001"
   class="st5"
   width="314.5"
   height="24"
   id="rect12"
   style="clip-rule:evenodd;fill:none;fill-rule:evenodd" /><text
   class="st6 st7 st8"
   id="text14"
   style="font-style:normal;font-variant:normal;font-weight:normal;font-stretch:normal;font-size:12px;font-family:'Open Sans', sans-serif;-inkscape-font-specification:'Open Sans, sans-serif, Normal';font-variant-ligatures:normal;font-variant-caps:normal;font-variant-numeric:normal;font-feature-settings:normal;text-align:start;writing-mode:lr-tb;text-anchor:start;opacity:0.5;fill:#132e48"
   x="194.21715"
   y="128.75729">mDNS enabled opensearchproject/opensearch</text>

<g
   id="g424"
   transform="matrix(2.3665693,0,0,2.3665693,-265.91038,198.45877)"
   style="stroke-width:0.422553"><path
     d="m 184.12336,-50.10401 c -1.2496,0 -2.2626,1.013 -2.2626,2.2626 0,18.6187 -15.0935,33.7122 -33.7122,33.7122 -1.2496,0 -2.2626,1.013 -2.2626,2.2626 0,1.2496 1.013,2.2626 2.2626,2.2626 21.1179,0 38.2374,-17.1195 38.2374,-38.2374 0,-1.2496 -1.013,-2.2626 -2.2626,-2.2626 z"
     fill="#005eb8"
     id="path2"
     style="stroke-width:0.178551" /><path
     d="m 170.46736,-35.60401 c 2.1758,-3.5495 4.2801,-8.2822 3.8661,-14.9079 -0.8576,-13.72485 -13.2886,-24.13673 -25.0269,-23.008367 -4.5953,0.441732 -9.3138,4.187467 -8.8946,10.896767 0.1822,2.9156 1.6092,4.6364 3.9284,5.9594 2.2074,1.2593 5.0434,2.057 8.2584,2.9612 3.8834,1.0923 8.3881,2.3192 11.8502,4.8706 4.1495,3.0578 6.9861,6.6026 6.0184,13.2283 z"
     fill="#003b5c"
     id="path4"
     style="stroke-width:0.178551" /><path
     d="m 126.30457,-59.60401 c -2.17585,3.5495 -4.28012,8.2822 -3.86612,14.9079 0.85758,13.7248 13.28861,24.1367 25.02691,23.0084 4.5953,-0.4418 9.3138,-4.1875 8.8946,-10.8968 -0.1822,-2.9156 -1.6093,-4.6364 -3.9284,-5.9594 -2.2074,-1.2593 -5.0434,-2.057 -8.2584,-2.9612 -3.8834,-1.0923 -8.3881,-2.3192 -11.85026,-4.8706 -4.14948,-3.0579 -6.98602,-6.6026 -6.01833,-13.2283 z"
     fill="#005eb8"
     id="path6"
     style="stroke-width:0.178551" /></g></svg>
